<svg width="64" height="64" viewBox="0 0 64 64" fill="none" xmlns="http://www.w3.org/2000/svg">
<path d="M29.1748 5.92285C30.8081 4.73111 32.998 4.69324 34.666 5.81055L34.8252 5.92285L58.0068 22.8379C59.6443 24.0328 60.3672 26.1317 59.8193 28.0898L59.7617 28.2783L50.9072 55.6484C50.2577 57.6562 48.4023 59 46.3262 59H17.6738C15.6625 59 13.8575 57.7392 13.1562 55.835L13.0928 55.6484L4.23828 28.2783C3.60822 26.3305 4.26 24.2091 5.83789 22.957L5.99316 22.8379L29.1748 5.92285Z" fill="#FF8833"/>
<path d="M29.1748 5.92285C30.8081 4.73111 32.998 4.69324 34.666 5.81055L34.8252 5.92285L58.0068 22.8379C59.6443 24.0328 60.3672 26.1317 59.8193 28.0898L59.7617 28.2783L50.9072 55.6484C50.2577 57.6562 48.4023 59 46.3262 59H17.6738C15.6625 59 13.8575 57.7392 13.1562 55.835L13.0928 55.6484L4.23828 28.2783C3.60822 26.3305 4.26 24.2091 5.83789 22.957L5.99316 22.8379L29.1748 5.92285Z" fill="url(#paint0_linear_20_5180)"/>
<path d="M29.1748 5.92285C30.8081 4.73111 32.998 4.69324 34.666 5.81055L34.8252 5.92285L58.0068 22.8379C59.6443 24.0328 60.3672 26.1317 59.8193 28.0898L59.7617 28.2783L50.9072 55.6484C50.2577 57.6562 48.4023 59 46.3262 59H17.6738C15.6625 59 13.8575 57.7392 13.1562 55.835L13.0928 55.6484L4.23828 28.2783C3.60822 26.3305 4.26 24.2091 5.83789 22.957L5.99316 22.8379L29.1748 5.92285Z" stroke="#2E0800" stroke-width="8"/>
<g style="mix-blend-mode:overlay">
<path d="M29.4434 12.8232C30.8713 11.7944 32.777 11.7297 34.2646 12.6299L34.5566 12.8232L51.2178 24.8281C52.642 25.8545 53.2827 27.6157 52.8828 29.2793L52.7891 29.6104L46.4248 49.0342C45.8482 50.7938 44.1871 52 42.2969 52H21.7031C19.9311 52 18.3608 50.9397 17.6963 49.3574L17.5752 49.0342L11.2109 29.6104C10.6714 27.9636 11.1894 26.1635 12.5078 25.043L12.7822 24.8281L29.4434 12.8232Z" stroke="url(#paint1_linear_20_5180)" stroke-opacity="0.6" stroke-width="4"/>
</g>
<defs>
<linearGradient id="paint0_linear_20_5180" x1="17.5" y1="55" x2="32" y2="9" gradientUnits="userSpaceOnUse">
<stop stop-color="#802000"/>
<stop offset="0.524038" stop-color="#E65C17"/>
<stop offset="1" stop-color="#FF8833"/>
</linearGradient>
<linearGradient id="paint1_linear_20_5180" x1="32" y1="10" x2="8.41455" y2="53.6839" gradientUnits="userSpaceOnUse">
<stop stop-color="white"/>
<stop offset="0.882429" stop-color="white" stop-opacity="0"/>
</linearGradient>
</defs>
</svg>
