<svg width="320" height="320" viewBox="0 0 320 320" fill="none" xmlns="http://www.w3.org/2000/svg">
<g clip-path="url(#clip0_2_108)">
<g clip-path="url(#clip1_2_108)">
<path d="M143.495 7.22559C153.924 1.43384 166.645 1.52726 177 7.50586L283.564 69.0303C294.084 75.1038 300.564 86.3286 300.564 98.4756V221.524C300.564 233.671 294.084 244.896 283.564 250.97L177 312.494C166.48 318.568 153.52 318.568 143 312.494L36.4355 250.97C25.9161 244.896 19.4355 233.671 19.4355 221.524V98.4756C19.4355 86.3287 25.9161 75.1038 36.4355 69.0303L143 7.50586L143.495 7.22559Z" fill="white" stroke="white" stroke-width="4"/>
<path d="M144 9.23743C153.901 3.52124 166.099 3.52124 176 9.23743L282.564 70.7628C292.465 76.4791 298.564 87.0426 298.564 98.4747V221.525C298.564 232.957 292.465 243.521 282.564 249.237L176 310.763C166.099 316.479 153.901 316.479 144 310.763L37.4355 249.237C27.5349 243.521 21.4355 232.957 21.4355 221.525V98.4747C21.4357 87.0426 27.5351 76.4791 37.4355 70.7628L144 9.23743ZM192 66.4747C172.198 55.0424 147.802 55.0424 128 66.4747L95.0049 85.5245C75.2033 96.957 63.0049 118.085 63.0049 140.95V179.05C63.005 201.915 75.2036 223.042 95.0049 234.475L128 253.525C147.802 264.957 172.198 264.957 192 253.525L224.995 234.475C244.796 223.042 256.995 201.915 256.995 179.05V140.95C256.995 118.085 244.797 96.957 224.995 85.5245L192 66.4747Z" fill="#FF2B00"/>
</g>
<path d="M206.706 120.292C206.706 121.341 206.297 122.216 205.481 122.915C204.781 123.615 203.907 123.965 202.857 123.965H137.434V148.105H196.91C197.959 148.105 198.834 148.455 199.533 149.155C200.35 149.854 200.758 150.729 200.758 151.778V168.222C200.758 169.271 200.35 170.204 199.533 171.02C198.834 171.72 197.959 172.07 196.91 172.07H137.434V216.152C137.434 217.201 137.026 218.134 136.21 218.95C135.51 219.65 134.636 220 133.586 220H117.143C116.093 220 115.16 219.65 114.344 218.95C113.644 218.134 113.294 217.201 113.294 216.152V103.848C113.294 102.799 113.644 101.924 114.344 101.224C115.16 100.408 116.093 100 117.143 100H202.857C203.907 100 204.781 100.408 205.481 101.224C206.297 101.924 206.706 102.799 206.706 103.848V120.292Z" fill="#99000D"/>
</g>
<defs>
<clipPath id="clip0_2_108">
<rect width="320" height="320" fill="white"/>
</clipPath>
<clipPath id="clip1_2_108">
<rect width="320" height="320" fill="white"/>
</clipPath>
</defs>
</svg>
