<svg xmlns="http://www.w3.org/2000/svg" fill="none" viewBox="0 0 1369 652"><path fill="#5E1A80" stroke="#103" stroke-width="11.6" d="M628.7 29.3A46.5 46.5 0 0 0 588.4 6H457.8c-16.7 0-32 9-40.4 23.4l-78.6 136.9-72 124.9a69.8 69.8 0 0 0 0 69.6L338.5 486l78.8 136.7a46.5 46.5 0 0 0 40.3 23.3h130.7c16.6 0 32-8.9 40.3-23.3l58.7-101.8a69.8 69.8 0 0 0 0-69.8l-52-90.2a69.8 69.8 0 0 1 0-69.8l52-90.2a69.8 69.8 0 0 0 0-69.8L628.7 29.3Z"/><path fill="#FF40BF" stroke="#103" stroke-width="11.6" d="M451.2 360.9a69.8 69.8 0 0 1 0-69.8L510 189.3a46.5 46.5 0 0 1 40.3-23.3H681c16.6 0 32 8.9 40.3 23.3L780 291.1a69.8 69.8 0 0 1 0 69.8l-58.7 101.8A46.5 46.5 0 0 1 681 486H550.2c-16.6 0-32-8.9-40.3-23.3l-58.7-101.8Z"/><path fill="#103" stroke="#103" stroke-width="11.6" d="M260 349.2a46.5 46.5 0 0 1 0-46.4l78.8-136.5 78.6-137A46.5 46.5 0 0 1 435 12l88.6 154.3 72 124.9a69.8 69.8 0 0 1 0 69.6L523.6 486 435 640c-7.2-4-13.3-10-17.5-17.3L338.6 486 260 349.2Z"/><path fill="#5E1A80" stroke="#103" stroke-width="11.6" d="M444.5 349.2a46.5 46.5 0 0 1 0-46.4L510 189.3c4.2-7.2 10-13 17-17l68.6 118.9a69.8 69.8 0 0 1 0 69.6l-68.3 119c-7-4-13-9.8-17.3-17.1l-65.4-113.5Z"/><path fill="#023" stroke="#023" stroke-width="11.6" d="M20 360.9a69.8 69.8 0 0 1 0-69.8l58.8-101.8A46.5 46.5 0 0 1 119 166h130.7c16.6 0 32 8.9 40.3 23.3l58.7 101.8a69.8 69.8 0 0 1 0 69.8L290 462.7a46.5 46.5 0 0 1-40.3 23.3H119c-16.6 0-32-8.9-40.3-23.3L20 360.9Z"/><path fill="#208078" stroke="#023" stroke-width="11.6" d="M171.3 29.3A46.5 46.5 0 0 1 211.6 6h130.6c16.7 0 32 9 40.4 23.4l78.6 136.9 72 124.9a69.8 69.8 0 0 1 0 69.6L461.5 486l-78.8 136.7a46.5 46.5 0 0 1-40.3 23.3H211.6c-16.6 0-32-8.9-40.3-23.3l-58.7-101.8a69.8 69.8 0 0 1 0-69.8l52-90.2a69.8 69.8 0 0 0 0-69.8l-52-90.2a69.8 69.8 0 0 1 0-69.8l58.7-101.8Z"/><path fill="#0FA" stroke="#023" stroke-width="11.6" d="M197.8 349.2a46.5 46.5 0 0 1 0-46.4l65.4-113.5a46.5 46.5 0 0 1 40.4-23.3h130.6c16.6 0 32 8.9 40.3 23.3L540 302.8a46.5 46.5 0 0 1 0 46.4l-65.4 113.5a46.5 46.5 0 0 1-40.3 23.3H303.6c-16.7 0-32-8.9-40.4-23.3l-65.4-113.5Z"/><path fill="#000" d="M929.3 272c-1.8 0-3.4-.6-4.8-1.8a7.2 7.2 0 0 1-1.8-4.8V72.8c0-1.8.6-3.3 1.8-4.5 1.4-1.4 3-2.1 4.8-2.1h105a53.4 53.4 0 0 1 53.1 53.1v99.6a51 51 0 0 1-15.6 37.5 53.4 53.4 0 0 1-37.5 15.6h-105Zm34.5-41.1h70.5c3.4 0 6.2-1.1 8.4-3.3 2.2-2.4 3.3-5.3 3.3-8.7v-99.6c0-3.4-1.1-6.2-3.3-8.4-2.2-2.4-5-3.6-8.4-3.6h-70.5v123.6Zm291.4-158.1c0-1.8.5-3.3 1.8-4.5 1.3-1.4 3-2.1 4.8-2.1h28.2c1.8 0 3.3.7 4.5 2.1a6.1 6.1 0 0 1 1.8 4.5v192.6c0 1.8-.6 3.4-1.8 4.8a6.1 6.1 0 0 1-4.5 1.8h-28.3c-1.8 0-3.4-.6-4.8-1.8a7.2 7.2 0 0 1-1.8-4.8v-75.6H1173v75.6c0 1.8-.8 3.4-2.2 4.8a6.1 6.1 0 0 1-4.5 1.8h-28.1c-1.9 0-3.4-.6-4.5-1.8a7.2 7.2 0 0 1-1.9-4.8V72.8c0-1.8.7-3.3 1.9-4.5a5.7 5.7 0 0 1 4.5-2.1h28.1c1.9 0 3.4.7 4.5 2.1a5.7 5.7 0 0 1 2.2 4.5v75.9h82.2V72.8Z"/><path fill="#FF40BF" d="M1087.2 401c0 1.8-.7 3.3-2 4.5a6.1 6.1 0 0 1-4.6 1.8H968.4v41.4h102c1.8 0 3.3.6 4.5 1.8a5.7 5.7 0 0 1 2.1 4.5v28.2c0 1.8-.7 3.4-2 4.8a6.1 6.1 0 0 1-4.6 1.8h-102v75.6c0 1.8-.7 3.4-2 4.8a6.1 6.1 0 0 1-4.6 1.8h-28.2c-1.8 0-3.4-.6-4.8-1.8a7.2 7.2 0 0 1-1.8-4.8V372.8c0-1.8.6-3.3 1.8-4.5 1.4-1.4 3-2.1 4.8-2.1h147c1.8 0 3.3.7 4.5 2.1a5.7 5.7 0 0 1 2.1 4.5V401Zm174.4 27c-1.8 0-3.4-.6-4.8-1.8a7.2 7.2 0 0 1-1.8-4.8v-2.1c0-3.4-1.1-6.2-3.3-8.4-2.2-2.4-5-3.6-8.4-3.6h-58.8c-3.2 0-6 1.2-8.4 3.6-2.2 2.2-3.3 5-3.3 8.4v17.4c0 3.4 1.1 6.3 3.3 8.7a12 12 0 0 0 8.4 3.3h58.8a54.3 54.3 0 0 1 48.6 32.4 50.3 50.3 0 0 1 4.2 20.4v17.4a51 51 0 0 1-15.6 37.5 54.3 54.3 0 0 1-37.2 15.6h-58.8a54.3 54.3 0 0 1-48.6-32.4 51 51 0 0 1-4.2-20.7v-2.1c0-1.8.6-3.3 1.8-4.5 1.4-1.4 3-2.1 4.8-2.1h27.9c1.8 0 3.3.7 4.5 2.1a5.7 5.7 0 0 1 2.1 4.5v2.1c0 3.4 1.1 6.3 3.3 8.7a12 12 0 0 0 8.4 3.3h58.8c3.4 0 6.2-1.1 8.4-3.3 2.2-2.4 3.3-5.3 3.3-8.7v-17.4c0-3.4-1.1-6.2-3.3-8.4-2.2-2.2-5-3.3-8.4-3.3h-58.8a54.3 54.3 0 0 1-48.6-32.4 52.5 52.5 0 0 1-4.2-20.7v-17.4a51 51 0 0 1 15.6-37.5 54.3 54.3 0 0 1 37.2-15.6h58.8a54.3 54.3 0 0 1 48.6 32.4 51 51 0 0 1 4.2 20.7v2.1c0 1.8-.6 3.4-1.8 4.8a6.1 6.1 0 0 1-4.5 1.8h-28.2Z"/></svg>