<svg xmlns="http://www.w3.org/2000/svg" fill="none" viewBox="0 0 1375 1375"><path fill="#5E1A80" stroke="#103" stroke-width="20" d="M1080.6 177.6a80 80 0 0 0-69.3-40.1H786.8a80 80 0 0 0-69.4 40.1L582.3 413 458.4 627.7a120 120 0 0 0-.1 119.7L582 962.5l135.4 235a80 80 0 0 0 69.3 40h224.6a80 80 0 0 0 69.3-40l100.9-175a120 120 0 0 0 0-120l-89.5-155a120 120 0 0 1 0-120l89.5-155a120 120 0 0 0 0-120l-101-175Z"/><path fill="#FF40BF" stroke="#103" stroke-width="20" d="M775.5 747.4a120 120 0 0 1 0-119.8l101-175a80 80 0 0 1 69.2-40.1h224.6a80 80 0 0 1 69.3 40l100.9 175a120 120 0 0 1 0 120l-101 175a80 80 0 0 1-69.2 40H945.7a80 80 0 0 1-69.3-40l-100.9-175Z"/><path fill="#103" stroke="#103" stroke-width="20" d="M447 727.4a80 80 0 0 1 0-79.8L582.3 413l135.1-235.3a80 80 0 0 1 30-29.7l152.4 265 123.7 214.8a120 120 0 0 1 .1 119.7L900 962.5l-152.6 264.7a80 80 0 0 1-30-29.8L582 962.6l-135-235Z"/><path fill="#5E1A80" stroke="#103" stroke-width="20" d="M764 727.4a80 80 0 0 1 0-79.8l112.4-195a80 80 0 0 1 29.3-29.4l117.8 204.5a120 120 0 0 1 .1 119.7L906.1 952a80 80 0 0 1-29.7-29.6L764 727.4Z"/><path fill="#023" stroke="#023" stroke-width="20" d="M34.5 747.4a120 120 0 0 1 0-119.8l101-175a80 80 0 0 1 69.2-40.1h224.6a80 80 0 0 1 69.3 40l100.9 175a120 120 0 0 1 0 120l-101 175a80 80 0 0 1-69.2 40H204.7a80 80 0 0 1-69.3-40l-100.9-175Z"/><path fill="#208078" stroke="#023" stroke-width="20" d="M294.4 177.6a80 80 0 0 1 69.3-40.1h224.5a80 80 0 0 1 69.4 40.1L792.7 413l123.8 214.8a120 120 0 0 1 .1 119.7L793 962.5l-135.4 235a80 80 0 0 1-69.3 40H363.7a80 80 0 0 1-69.3-40l-100.9-175a120 120 0 0 1 0-120l89.5-155a120 120 0 0 0 0-120l-89.5-155a120 120 0 0 1 0-120l101-175Z"/><path fill="#0FA" stroke="#023" stroke-width="20" d="M340 727.4a80 80 0 0 1 0-79.8l112.4-195a80 80 0 0 1 69.3-40.1h224.6a80 80 0 0 1 69.3 40l112.4 195a80 80 0 0 1 0 80l-112.4 195a80 80 0 0 1-69.3 40H521.7a80 80 0 0 1-69.3-40L340 727.4Z"/></svg>