<svg width="1730" height="825" viewBox="0 0 1730 825" fill="none" xmlns="http://www.w3.org/2000/svg">
<g clip-path="url(#clip0_20_5359)">
<path d="M381.57 4.91046C401.673 -1.63294 423.326 -1.63288 443.429 4.91046L626.62 64.5403L627.561 64.8519C647.269 71.4836 664.435 84.1027 676.665 100.966L789.885 257.079L790.462 257.885C802.515 274.856 808.999 295.173 808.999 316.018V508.985C808.999 530.16 802.308 550.791 789.885 567.922L676.665 724.036C664.435 740.9 647.269 753.519 627.561 760.151L626.62 760.462L443.429 820.092C423.326 826.635 401.673 826.635 381.57 820.092L198.379 760.462C178.277 753.919 160.758 741.167 148.334 724.036L35.1152 567.922C22.6914 550.791 16 530.16 16 508.985V316.018C16 294.843 22.6914 274.21 35.1152 257.079L148.334 100.966C160.758 83.8351 178.277 71.0838 198.379 64.5403L381.57 4.91046Z" fill="#1A0F0D"/>
<path d="M56.3594 337.878C56.3599 325.456 67.5653 316.039 79.8018 318.177L175.634 334.919C182.93 336.194 188.924 341.397 191.213 348.44L258.15 554.452C259.909 559.865 259.276 565.761 256.429 570.669L256.146 571.141L194.354 671.21C186.88 683.313 169.517 683.965 161.156 672.457L60.1787 533.475C57.6964 530.058 56.3594 525.942 56.3594 521.719V337.878Z" fill="#802000"/>
<path d="M519.795 585.889C526.729 585.889 533.169 589.481 536.812 595.381L601.2 699.65C608.01 710.679 602.69 725.174 590.363 729.18L418.681 784.963C414.79 786.227 410.607 786.266 406.698 785.081L406.32 784.963L234.638 729.18C222.31 725.174 216.991 710.679 223.801 699.65L288.189 595.381L288.538 594.834C292.235 589.26 298.488 585.889 305.205 585.889H519.795Z" fill="#661100"/>
<path d="M745.776 318.085C757.787 316.334 768.645 325.65 768.645 337.878V521.719C768.645 525.942 767.308 530.058 764.826 533.475L663.848 672.457C655.487 683.965 638.124 683.313 630.651 671.21L568.858 571.141C565.771 566.142 565.039 560.039 566.854 554.452L633.791 348.441L634.017 347.785C636.456 341.075 642.303 336.154 649.37 334.919L745.203 318.177L745.776 318.085Z" fill="#CC5214"/>
<path d="M432.5 72.0561C432.5 58.4688 445.758 48.8359 458.681 53.0346L626.428 107.54L626.803 107.665C630.662 109.004 634.023 111.495 636.428 114.805L734.771 250.162C743.467 262.131 736.606 279.072 722.032 281.619L635.455 296.745C630.121 297.676 624.638 296.406 620.258 293.223L440.744 162.799C435.565 159.036 432.5 153.021 432.5 146.62V72.0561Z" fill="#FFA64D"/>
<path d="M366.323 53.0346C379.245 48.8359 392.503 58.4688 392.503 72.0561V146.62C392.503 152.822 389.627 158.661 384.739 162.441L384.259 162.799L204.745 293.223C200.502 296.306 195.223 297.595 190.048 296.826L189.548 296.745L102.971 281.619C88.3972 279.072 81.5367 262.131 90.2328 250.162L188.576 114.805L188.811 114.487C191.277 111.23 194.684 108.804 198.576 107.54L366.323 53.0346Z" fill="#FF791A"/>
<path d="M401.073 200.028C408.048 195.171 417.354 195.25 424.254 200.263L586.939 318.461C593.949 323.553 596.882 332.58 594.205 340.821L532.065 532.069C529.388 540.309 521.708 545.889 513.044 545.889H311.954C303.425 545.889 295.851 540.483 293.062 532.454L292.932 532.069L230.793 340.821C228.115 332.581 231.049 323.553 238.058 318.461L400.743 200.263L401.073 200.028Z" fill="#FFC573"/>
</g>
<path d="M931.4 541C929 541 926.867 540.2 925 538.6C923.4 536.733 922.6 534.6 922.6 532.2V275.4C922.6 273 923.4 271 925 269.4C926.867 267.533 929 266.6 931.4 266.6H1071.4C1081 266.6 1090.07 268.467 1098.6 272.2C1107.4 275.933 1115 281 1121.4 287.4C1127.8 293.8 1132.87 301.267 1136.6 309.8C1140.33 318.333 1142.2 327.533 1142.2 337.4V470.2C1142.2 480.067 1140.33 489.267 1136.6 497.8C1132.87 506.333 1127.8 513.8 1121.4 520.2C1115 526.6 1107.4 531.667 1098.6 535.4C1090.07 539.133 1081 541 1071.4 541H931.4ZM977.4 486.2H1071.4C1075.93 486.2 1079.67 484.733 1082.6 481.8C1085.53 478.6 1087 474.733 1087 470.2V337.4C1087 332.867 1085.53 329.133 1082.6 326.2C1079.67 323 1075.93 321.4 1071.4 321.4H977.4V486.2ZM1365.91 275.4C1365.91 273 1366.71 271 1368.31 269.4C1370.17 267.533 1372.31 266.6 1374.71 266.6H1412.31C1414.71 266.6 1416.71 267.533 1418.31 269.4C1419.91 271 1420.71 273 1420.71 275.4V532.2C1420.71 534.6 1419.91 536.733 1418.31 538.6C1416.71 540.2 1414.71 541 1412.31 541H1374.71C1372.31 541 1370.17 540.2 1368.31 538.6C1366.71 536.733 1365.91 534.6 1365.91 532.2V431.4H1256.31V532.2C1256.31 534.6 1255.37 536.733 1253.51 538.6C1251.91 540.2 1249.91 541 1247.51 541H1209.91C1207.51 541 1205.51 540.2 1203.91 538.6C1202.31 536.733 1201.51 534.6 1201.51 532.2V275.4C1201.51 273 1202.31 271 1203.91 269.4C1205.51 267.533 1207.51 266.6 1209.91 266.6H1247.51C1249.91 266.6 1251.91 267.533 1253.51 269.4C1255.37 271 1256.31 273 1256.31 275.4V376.6H1365.91V275.4ZM1699.62 313C1699.62 315.4 1698.69 317.4 1696.82 319C1695.22 320.6 1693.22 321.4 1690.82 321.4H1541.22V376.6H1677.22C1679.62 376.6 1681.62 377.4 1683.22 379C1685.09 380.6 1686.02 382.6 1686.02 385V422.6C1686.02 425 1685.09 427.133 1683.22 429C1681.62 430.6 1679.62 431.4 1677.22 431.4H1541.22V532.2C1541.22 534.6 1540.29 536.733 1538.42 538.6C1536.82 540.2 1534.82 541 1532.42 541H1494.82C1492.42 541 1490.29 540.2 1488.42 538.6C1486.82 536.733 1486.02 534.6 1486.02 532.2V275.4C1486.02 273 1486.82 271 1488.42 269.4C1490.29 267.533 1492.42 266.6 1494.82 266.6H1690.82C1693.22 266.6 1695.22 267.533 1696.82 269.4C1698.69 271 1699.62 273 1699.62 275.4V313Z" fill="#1A0F0D"/>
<defs>
<clipPath id="clip0_20_5359">
<rect width="825" height="825" fill="white"/>
</clipPath>
</defs>
</svg>
