<svg width="825" height="825" viewBox="0 0 825 825" fill="none" xmlns="http://www.w3.org/2000/svg">
<g clip-path="url(#clip0_20_5213)">
<path d="M381.57 4.91145C401.673 -1.63196 423.326 -1.63192 443.429 4.91145L626.62 64.5413L627.561 64.8529C647.269 71.4846 664.435 84.1036 676.665 100.967L789.885 257.08L790.462 257.885C802.515 274.855 808.999 295.174 808.999 316.018V508.986C808.999 530.161 802.309 550.792 789.885 567.923L676.665 724.037C664.435 740.901 647.269 753.52 627.561 760.152L626.62 760.462L443.429 820.093C423.326 826.636 401.673 826.636 381.57 820.093L198.379 760.462C178.277 753.919 160.758 741.168 148.334 724.037L35.1152 567.923C22.6914 550.792 16 530.161 16 508.986V316.018C16.0001 294.843 22.6915 274.211 35.1152 257.08L148.334 100.967C160.758 83.8361 178.277 71.0849 198.379 64.5413L381.57 4.91145Z" fill="#1A0F0D"/>
<path d="M56.3594 337.878C56.3599 325.456 67.5653 316.039 79.8018 318.177L175.634 334.919C182.93 336.194 188.924 341.397 191.213 348.44L258.15 554.452C259.909 559.865 259.276 565.761 256.429 570.669L256.146 571.141L194.354 671.21C186.88 683.313 169.517 683.965 161.156 672.457L60.1787 533.475C57.6964 530.058 56.3594 525.942 56.3594 521.719V337.878Z" fill="#802000"/>
<path d="M519.795 585.889C526.729 585.889 533.169 589.481 536.812 595.381L601.2 699.65C608.01 710.679 602.69 725.174 590.363 729.18L418.681 784.963C414.79 786.227 410.607 786.266 406.698 785.081L406.32 784.963L234.638 729.18C222.31 725.174 216.991 710.679 223.801 699.65L288.189 595.381L288.538 594.834C292.235 589.26 298.488 585.889 305.205 585.889H519.795Z" fill="#661100"/>
<path d="M745.776 318.085C757.787 316.334 768.645 325.65 768.645 337.878V521.719C768.645 525.942 767.308 530.058 764.826 533.475L663.848 672.457C655.487 683.965 638.124 683.313 630.651 671.21L568.858 571.141C565.771 566.142 565.039 560.039 566.854 554.452L633.791 348.44L634.017 347.785C636.456 341.075 642.303 336.154 649.371 334.919L745.203 318.177L745.776 318.085Z" fill="#CC5214"/>
<path d="M432.5 72.0561C432.5 58.4688 445.758 48.8359 458.681 53.0346L626.428 107.54L626.803 107.666C630.662 109.005 634.023 111.495 636.428 114.805L734.771 250.162C743.467 262.131 736.606 279.072 722.032 281.619L635.455 296.745C630.122 297.676 624.638 296.405 620.258 293.223L440.744 162.799C435.565 159.036 432.5 153.021 432.5 146.62V72.0561Z" fill="#FFA64D"/>
<path d="M366.323 53.0346C379.245 48.8359 392.503 58.4688 392.503 72.0561V146.62C392.503 152.821 389.627 158.661 384.739 162.441L384.259 162.799L204.745 293.223C200.502 296.306 195.223 297.595 190.048 296.826L189.548 296.745L102.971 281.619C88.397 279.072 81.5368 262.131 90.2328 250.162L188.576 114.805L188.811 114.487C191.277 111.23 194.684 108.804 198.576 107.54L366.323 53.0346Z" fill="#FF791A"/>
<path d="M401.073 200.027C408.048 195.17 417.354 195.249 424.254 200.262L586.939 318.459C593.949 323.552 596.882 332.58 594.205 340.82L532.065 532.068C529.388 540.308 521.708 545.888 513.044 545.888H311.954C303.425 545.888 295.851 540.482 293.062 532.453L292.932 532.068L230.793 340.82C228.115 332.58 231.049 323.552 238.058 318.459L400.743 200.262L401.073 200.027Z" fill="#FFC573"/>
</g>
<defs>
<clipPath id="clip0_20_5213">
<rect width="825" height="825" fill="white"/>
</clipPath>
</defs>
</svg>
